<?xml version="1.0" encoding="utf-8"?>
<!-- Generator: Adobe Illustrator 25.0.0, SVG Export Plug-In . SVG Version: 6.00 Build 0)  -->
<svg version="1.1" id="Layer_1" xmlns="http://www.w3.org/2000/svg" xmlns:xlink="http://www.w3.org/1999/xlink" x="0px" y="0px"
	 viewBox="0 0 455.36 238.73" style="enable-background:new 0 0 455.36 238.73;" xml:space="preserve">
<style type="text/css">
	.st0{fill:#0062FB;}
	.st1{fill:#FF3600;}
</style>
<path class="st0" d="M179.04,169.54v0.92c0,0.28-0.2,0.48-0.48,0.48h-7.9c-0.08,0-0.16,0.08-0.16,0.16v25.42
	c0,0.28-0.2,0.48-0.48,0.48h-1.16c-0.28,0-0.48-0.2-0.48-0.48v-25.42c0-0.08-0.08-0.16-0.16-0.16h-7.5c-0.28,0-0.48-0.2-0.48-0.48
	v-0.92c0-0.28,0.2-0.48,0.48-0.48h17.84C178.84,169.06,179.04,169.26,179.04,169.54z"/>
<path class="st0" d="M192.17,177.16c0.24,0.12,0.32,0.32,0.24,0.6l-0.32,1.16c-0.08,0.32-0.28,0.4-0.6,0.28
	c-0.48-0.16-1.08-0.28-1.92-0.24c-2.99,0.04-5.15,2.59-5.15,5.75v11.81c0,0.28-0.2,0.48-0.48,0.48h-1.16c-0.28,0-0.48-0.2-0.48-0.48
	v-19.15c0-0.28,0.2-0.48,0.48-0.48h1.16c0.28,0,0.48,0.2,0.48,0.48v2.63c0,0.16,0.12,0.2,0.16,0.04c1.08-2,2.83-3.31,5.31-3.31
	C190.93,176.72,191.61,176.92,192.17,177.16z"/>
<path class="st0" d="M210.45,183.26v13.25c0,0.28-0.2,0.48-0.48,0.48h-1.16c-0.28,0-0.48-0.2-0.48-0.48v-1.72
	c0-0.12-0.08-0.2-0.2-0.08c-1.44,1.72-3.87,2.59-6.42,2.59c-3.31,0-6.54-1.52-6.54-5.67c0-3.95,3.07-6.38,8.22-6.38h4.79
	c0.08,0,0.16-0.08,0.16-0.16v-1.8c0-2.83-1.44-4.87-5.11-4.87c-2.71,0-4.55,1.16-4.99,3.03c-0.08,0.28-0.28,0.44-0.56,0.4
	l-1.24-0.16c-0.28-0.04-0.48-0.2-0.44-0.44c0.52-2.79,3.31-4.71,7.26-4.71C208.05,176.56,210.45,179.27,210.45,183.26z
	 M208.33,190.81v-3.63c0-0.08-0.08-0.16-0.16-0.16h-4.55c-3.75,0-6.34,1.64-6.34,4.51c0,2.71,2.15,3.95,4.83,3.95
	C205.22,195.47,208.33,193.92,208.33,190.81z"/>
<path class="st0" d="M229.68,169.06h1.16c0.28,0,0.48,0.2,0.48,0.48v26.97c0,0.28-0.2,0.48-0.48,0.48h-1.16
	c-0.28,0-0.48-0.2-0.48-0.48v-1.88c0-0.16-0.12-0.2-0.2-0.08c-1.16,1.75-3.03,2.75-5.39,2.75c-3.71,0-6.26-2.12-7.14-5.31
	c-0.36-1.36-0.44-2.91-0.44-5.03c0-2.07,0.04-3.67,0.4-5.03c0.84-3.23,3.43-5.39,7.18-5.39c2.35,0,4.23,1,5.39,2.71
	c0.08,0.12,0.2,0.04,0.2-0.08v-9.66C229.2,169.26,229.4,169.06,229.68,169.06z M229.16,186.98c0-2.99-0.16-3.87-0.52-4.87
	c-0.52-2.07-2.23-3.67-4.79-3.67c-2.59,0-4.47,1.56-5.07,3.63c-0.4,0.96-0.64,1.83-0.64,4.87c0,2.91,0.2,3.75,0.52,4.75
	c0.56,2.23,2.55,3.75,5.19,3.75c2.59,0,4.27-1.64,4.83-3.75C229,190.77,229.16,189.89,229.16,186.98z"/>
<path class="st0" d="M237.78,171.09c0-1,0.8-1.72,1.84-1.72c1.08,0,1.84,0.72,1.84,1.72c0,1-0.76,1.76-1.84,1.76
	C238.58,172.85,237.78,172.09,237.78,171.09z M238.58,196.51v-19.15c0-0.28,0.2-0.48,0.48-0.48h1.16c0.28,0,0.48,0.2,0.48,0.48
	v19.15c0,0.28-0.2,0.48-0.48,0.48h-1.16C238.78,196.99,238.58,196.79,238.58,196.51z"/>
<path class="st0" d="M262.68,183.42v13.09c0,0.28-0.2,0.48-0.48,0.48h-1.16c-0.28,0-0.48-0.2-0.48-0.48v-12.69
	c0-3.15-2.11-5.35-5.15-5.35c-3.23,0-5.39,2.16-5.39,5.27v12.77c0,0.28-0.2,0.48-0.48,0.48h-1.16c-0.28,0-0.48-0.2-0.48-0.48v-19.15
	c0-0.28,0.2-0.48,0.48-0.48h1.16c0.28,0,0.48,0.2,0.48,0.48v1.88c0,0.16,0.08,0.2,0.16,0.08c1.16-1.76,3.15-2.71,5.67-2.71
	C259.93,176.6,262.68,179.31,262.68,183.42z"/>
<path class="st0" d="M282.28,176.88h1.16c0.28,0,0.48,0.2,0.48,0.48v19.19c0,6.18-3.99,8.62-10.29,8.38
	c-0.32-0.04-0.48-0.24-0.48-0.52l0.04-1c0-0.28,0.16-0.48,0.48-0.44c5.71,0.16,8.14-1.92,8.14-6.46v-2c0-0.16-0.12-0.2-0.2-0.08
	c-1.08,1.64-2.83,2.75-5.47,2.75c-3.43,0-6.26-1.96-7.14-5.31c-0.32-1.2-0.44-2.83-0.44-4.91c0-2.11,0.08-3.79,0.48-5.15
	c0.84-3.07,3.43-5.27,7.02-5.27c2.55,0,4.39,1.04,5.55,2.71c0.08,0.12,0.2,0.04,0.2-0.08v-1.84
	C281.8,177.08,282,176.88,282.28,176.88z M281.8,186.94c0-3.03-0.04-3.43-0.2-4.27c-0.4-2.31-2.27-4.23-5.15-4.23
	c-2.91,0-4.79,1.92-5.43,4.23c-0.24,0.8-0.36,1.88-0.36,4.23c0,2.35,0.2,3.67,0.36,4.23c0.56,2.35,2.55,4.23,5.43,4.23
	c2.99,0,4.75-1.96,5.15-4.23C281.76,190.37,281.8,189.97,281.8,186.94z"/>
<path class="st0" d="M298.16,188.69v-11.37c0-5.15,3.63-8.58,9.14-8.58c5.43,0,9.1,3.39,9.1,8.46c0,0.28-0.2,0.48-0.48,0.48
	l-1.16,0.04c-0.32,0-0.48-0.08-0.48-0.24v-0.24c0-3.99-2.79-6.62-6.98-6.62c-4.23,0-7.02,2.63-7.02,6.62v11.57
	c0,3.99,2.79,6.66,7.02,6.66c4.19,0,6.98-2.67,6.98-6.66c0-0.28,0.16-0.44,0.48-0.44l1.16,0.04c0.28,0,0.48,0.08,0.48,0.2v0.2
	c0,5.11-3.67,8.54-9.1,8.54C301.79,197.35,298.16,193.88,298.16,188.69z"/>
<path class="st0" d="M322.5,191.88c-0.4-1.32-0.48-2.95-0.48-4.99c0-2.12,0.12-3.67,0.44-4.95c0.92-3.23,3.71-5.39,7.54-5.39
	c3.79,0,6.62,2.15,7.5,5.39c0.36,1.32,0.44,2.95,0.44,4.95c0,2.07-0.08,3.67-0.44,4.99c-0.88,3.27-3.75,5.43-7.5,5.43
	C326.17,197.31,323.42,195.15,322.5,191.88z M335.55,191.17c0.2-0.92,0.24-2.47,0.24-4.23c0-1.96-0.04-3.35-0.24-4.23
	c-0.6-2.55-2.67-4.27-5.59-4.27s-4.95,1.72-5.55,4.27c-0.2,0.88-0.24,2.39-0.24,4.23c0,1.92,0.04,3.35,0.24,4.23
	c0.6,2.59,2.63,4.27,5.59,4.27C332.88,195.43,334.95,193.72,335.55,191.17z"/>
<path class="st0" d="M358.97,183.42v13.09c0,0.28-0.2,0.48-0.48,0.48h-1.16c-0.28,0-0.48-0.2-0.48-0.48v-12.69
	c0-3.15-2.11-5.35-5.15-5.35c-3.23,0-5.39,2.16-5.39,5.27v12.77c0,0.28-0.2,0.48-0.48,0.48h-1.16c-0.28,0-0.48-0.2-0.48-0.48v-19.15
	c0-0.28,0.2-0.48,0.48-0.48h1.16c0.28,0,0.48,0.2,0.48,0.48v1.88c0,0.16,0.08,0.2,0.16,0.08c1.16-1.76,3.15-2.71,5.67-2.71
	C356.22,176.6,358.97,179.31,358.97,183.42z"/>
<path class="st0" d="M364.6,191.96v-0.44c0-0.28,0.2-0.48,0.48-0.48h1.12c0.28,0,0.48,0.16,0.48,0.4v0.44
	c0,1.88,2.08,3.59,5.19,3.59c3.03,0,5.07-1.64,5.07-3.75c0-2.39-2.59-3.07-5.39-3.91c-3.39-1.04-6.82-2.11-6.82-5.75
	c0-3.27,2.87-5.35,7.02-5.35c4.31,0,7.14,2.27,7.14,5.31v0.04c0,0.28-0.2,0.48-0.48,0.48h-1.08c-0.28,0-0.48-0.12-0.48-0.28v-0.24
	c0-1.96-1.96-3.55-5.15-3.55c-2.95,0-4.95,1.36-4.95,3.47c0,2.23,2.35,2.99,5.19,3.83c3.39,1,7.1,2.03,7.1,5.83
	c0,3.31-2.83,5.59-7.14,5.59C367.51,197.19,364.6,194.84,364.6,191.96z"/>
<path class="st0" d="M384.51,191.88c-0.4-1.32-0.48-2.95-0.48-4.99c0-2.12,0.12-3.67,0.44-4.95c0.92-3.23,3.71-5.39,7.54-5.39
	c3.79,0,6.62,2.15,7.5,5.39c0.36,1.32,0.44,2.95,0.44,4.95c0,2.07-0.08,3.67-0.44,4.99c-0.88,3.27-3.75,5.43-7.5,5.43
	C388.19,197.31,385.43,195.15,384.51,191.88z M397.56,191.17c0.2-0.92,0.24-2.47,0.24-4.23c0-1.96-0.04-3.35-0.24-4.23
	c-0.6-2.55-2.67-4.27-5.59-4.27s-4.95,1.72-5.55,4.27c-0.2,0.88-0.24,2.39-0.24,4.23c0,1.92,0.04,3.35,0.24,4.23
	c0.6,2.59,2.63,4.27,5.59,4.27C394.89,195.43,396.96,193.72,397.56,191.17z"/>
<path class="st0" d="M406.22,196.51v-26.97c0-0.28,0.2-0.48,0.48-0.48h1.16c0.28,0,0.48,0.2,0.48,0.48v26.97
	c0,0.28-0.2,0.48-0.48,0.48h-1.16C406.42,196.99,406.22,196.79,406.22,196.51z"/>
<path class="st0" d="M428.09,192.2c0.16-0.28,0.36-0.36,0.64-0.24l0.72,0.28c0.28,0.12,0.4,0.36,0.28,0.64
	c-1.12,2.63-3.67,4.43-7.22,4.43c-3.75,0-6.3-2-7.3-5.07c-0.44-1.44-0.56-3.15-0.56-5.35c0-2.16,0-3.55,0.32-4.79
	c0.84-3.31,3.59-5.55,7.46-5.55c4.35,0,6.94,2.47,7.62,6.26c0.24,1.08,0.28,2,0.28,4.27c0,0.36-0.2,0.52-0.48,0.52h-12.97
	c-0.08,0-0.16,0.04-0.16,0.16c0,1.6,0.04,2.71,0.2,3.43c0.56,2.51,2.67,4.27,5.75,4.27C425.3,195.43,427.21,194.16,428.09,192.2z
	 M416.72,185.74c0,0.12,0.08,0.16,0.16,0.16h11.13c0.08,0,0.16-0.04,0.16-0.16c0-1.28-0.08-2.43-0.2-3.03
	c-0.56-2.51-2.59-4.27-5.55-4.27c-2.95,0-4.91,1.72-5.43,4.15C416.8,183.3,416.76,184.38,416.72,185.74z"/>
<path class="st0" d="M197.68,129.01c0.87-0.98,1.75-1.09,2.62-0.22l6.22,6.01c0.87,0.87,0.87,1.64,0.22,2.62
	c-4.7,5.9-12.56,9.61-21.51,9.61c-13.76,0-22.6-7.64-25.55-19.22c-0.87-3.17-1.31-6.55-1.31-10.15c0-4.15,0.33-7.53,1.2-10.7
	c2.95-10.7,12.23-17.91,24.46-17.91c14.74,0,22.71,9.39,25.11,24.13c0.33,2.4,0.55,5.13,0.66,7.97c0,1.2-0.66,1.86-1.86,1.86h-33.52
	c-0.44,0-0.65,0.22-0.65,0.66c0.22,1.42,0.44,2.51,0.76,3.38c1.53,4.48,6.01,6.99,12.12,6.99
	C191.57,133.81,195.28,131.96,197.68,129.01z M174.75,108.81c-0.22,0.76-0.55,1.64-0.65,2.73c-0.11,0.44,0.11,0.66,0.55,0.66h18.56
	c0.44,0,0.66-0.22,0.55-0.66c-0.11-0.98-0.22-1.64-0.44-2.29c-1.31-4.15-4.48-6.88-9.5-6.88
	C179.01,102.37,175.95,104.88,174.75,108.81z"/>
<path class="st0" d="M268,109.03v35.27c0,1.2-0.66,1.86-1.86,1.86h-11.68c-1.2,0-1.86-0.66-1.86-1.86v-32.1
	c0-5.79-3.49-9.83-8.84-9.83s-9.06,3.93-9.06,9.83v32.1c0,1.2-0.66,1.86-1.86,1.86h-11.68c-1.2,0-1.86-0.66-1.86-1.86V91.88
	c0-1.2,0.66-1.86,1.86-1.86h11.68c1.2,0,1.86,0.65,1.86,1.86v3.06c0,0.55,0.33,0.76,0.66,0.33c3.06-4.15,7.42-6.11,13.21-6.11
	C260.03,89.15,268,96.58,268,109.03z"/>
<path class="st0" d="M327.73,109.03v35.27c0,1.2-0.66,1.86-1.86,1.86h-11.68c-1.2,0-1.86-0.66-1.86-1.86v-32.1
	c0-5.79-3.49-9.83-8.84-9.83s-9.06,3.93-9.06,9.83v32.1c0,1.2-0.66,1.86-1.86,1.86h-11.68c-1.2,0-1.86-0.66-1.86-1.86V91.88
	c0-1.2,0.66-1.86,1.86-1.86h11.68c1.2,0,1.86,0.65,1.86,1.86v3.06c0,0.55,0.33,0.76,0.66,0.33c3.06-4.15,7.42-6.11,13.21-6.11
	C319.76,89.15,327.73,96.58,327.73,109.03z"/>
<path class="st0" d="M376.87,129.01c0.87-0.98,1.75-1.09,2.62-0.22l6.22,6.01c0.87,0.87,0.87,1.64,0.22,2.62
	c-4.7,5.9-12.56,9.61-21.51,9.61c-13.76,0-22.6-7.64-25.55-19.22c-0.87-3.17-1.31-6.55-1.31-10.15c0-4.15,0.33-7.53,1.2-10.7
	c2.95-10.7,12.23-17.91,24.46-17.91c14.74,0,22.71,9.39,25.11,24.13c0.33,2.4,0.55,5.13,0.66,7.97c0,1.2-0.66,1.86-1.86,1.86h-33.52
	c-0.44,0-0.66,0.22-0.66,0.66c0.22,1.42,0.44,2.51,0.76,3.38c1.53,4.48,6,6.99,12.12,6.99
	C370.76,133.81,374.47,131.96,376.87,129.01z M353.94,108.81c-0.22,0.76-0.55,1.64-0.66,2.73c-0.11,0.44,0.11,0.66,0.55,0.66h18.56
	c0.44,0,0.65-0.22,0.55-0.66c-0.11-0.98-0.22-1.64-0.44-2.29c-1.31-4.15-4.48-6.88-9.5-6.88
	C358.2,102.37,355.14,104.88,353.94,108.81z"/>
<path class="st0" d="M427.54,102.37h-9.83c-0.44,0-0.66,0.22-0.66,0.66v22.6c0,4.7,1.86,6.99,6.22,6.99h3.06
	c1.2,0,1.86,0.66,1.86,1.86v9.39c0,1.09-0.66,1.86-1.86,1.97c-2.07,0.11-4.04,0.22-6,0.22c-11.14,0-18.02-2.62-18.13-14.41v-28.61
	c0-0.44-0.22-0.66-0.66-0.66h-5.57c-1.2,0-1.86-0.65-1.86-1.86v-8.63c0-1.2,0.66-1.86,1.86-1.86h5.57c0.44,0,0.66-0.22,0.66-0.66
	V77.03c0-1.2,0.66-1.86,1.86-1.86h11.14c1.2,0,1.86,0.66,1.86,1.86v12.34c0,0.44,0.22,0.66,0.66,0.66h9.83
	c1.2,0,1.86,0.65,1.86,1.86v8.63C429.4,101.71,428.74,102.37,427.54,102.37z"/>
<path class="st1" d="M149.18,96.65c-1.56-2.69-3.52-5.51-5.99-8.39c0,0,14.24-17.12,1.54-38.74c0,0-8.04-13.99-27.53-15.74H22.36
	c0,0,5.75,22.24,31.24,22.24h58.68c3.07,0,6.02,1.21,8.21,3.36v0c4.19,4.13,4.67,10.73,1.11,15.41l-0.26,0.35
	c-2.21,2.91-5.66,4.62-9.32,4.62H92.16l-30.32,67.47h62.23c0,0,8.42,0,16.99-6.58C154.53,130.32,157.68,111.36,149.18,96.65z
	 M129.44,121.02c-2.24,2.73-5.58,4.31-9.12,4.31H94.75l10.83-23.57h14.74c3.53,0,6.88,1.58,9.12,4.31
	C133,110.42,133,116.67,129.44,121.02z"/>
<polygon class="st0" points="50.51,147.24 80.84,79.77 68.1,79.77 37.61,147.24 "/>
<line class="st0" x1="153.89" y1="157.81" x2="433" y2="157.81"/>
<rect x="153.89" y="157.31" class="st0" width="279.1" height="1"/>
</svg>
